<svg width="688" height="689" viewBox="0 0 688 689" fill="none" xmlns="http://www.w3.org/2000/svg">
<path d="M0.485107 0.484894V412.885M27.9651 0.484894V412.885M55.4451 0.484894V412.885M82.9251 0.484894L82.9851 412.885M110.405 0.484894V412.885M137.885 0.484894V412.885M165.365 0.484894V413.145M192.845 0.484894V412.885M220.325 0.984894V412.885M247.805 0.984894V412.885M275.285 0.984894V418.637M302.765 0.984894V418.637M330.245 0.984894V418.637M357.725 0.984894V418.637M385.205 0.984894V418.637M412.685 0.484894V418.637M275.285 269.333V687.128M302.765 269.434V687.485M330.245 269.535V687.142M357.725 269.636L357.508 688.048M385.205 269.736V687.485M412.685 269.837V687.485M440.165 275.584V686.577M467.645 275.584V686.678M495.125 275.584V686.779M522.605 275.584V686.88M550.085 275.584V686.981M577.565 275.584V687.081M605.045 275.584V687.182M632.525 275.584V687.283M660.005 275.584V687.384M687.485 275.391V687.485" stroke="#F7F7F7" stroke-width="0.97028"/>
<path d="M686.986 687.485H274.286M686.986 660.005H275.385M686.986 632.525H275.385M686.986 605.045H275.385M686.986 577.565H275.385M686.986 550.085H275.385M686.986 522.605H275.385M686.986 495.125H275.385M686.985 467.645H275.385M686.985 440.165H275.385M686.985 412.685H269.138M686.985 385.205H269.138M686.985 357.725H269.138M686.985 330.245H269.138M686.985 302.765H269.138M687.485 275.285H269.138M418.333 412.685H1.99725M418.232 385.205H1.89642M418.131 357.725H1.79559M418.031 330.245H1.69482M417.93 302.765H1.59399M417.829 275.285H1.49316M412.443 247.805H1.3924M412.443 220.325H1.29156M412.443 192.845H1.1908M412.443 165.365H1.08997M412.443 137.885H0.989136M412.443 110.405H0.888367M412.443 82.9249H0.787476M412.443 55.4449H0.686768M412.443 27.9649H0.585938M413.084 0.484894H0.485107" stroke="#F7F7F7" stroke-opacity="0.968627" stroke-width="0.969815"/>
</svg>
