<svg width="32" height="55" viewBox="0 0 32 55" fill="none" xmlns="http://www.w3.org/2000/svg">
<mask id="mask0_212_119" style="mask-type:alpha" maskUnits="userSpaceOnUse" x="0" y="0" width="32" height="55">
<path d="M31.5 26.9543C25.4948 27.4661 21.1602 27.9165 19.042 29.4724C16.5526 31.2944 15.963 47.7378 15.3078 54.4118C14.6309 47.4921 14.0195 31.0692 11.2898 29.2881C9.1716 27.896 5.74317 27.4456 0 26.9543C5.98338 26.4425 9.45549 25.9716 11.5519 24.4362C14.0631 22.5937 14.6527 6.69445 15.3078 0C15.9193 6.16217 16.4652 22.0409 18.4961 23.9449C20.5269 25.8488 24.9489 26.4015 31.5 26.9543Z" fill="white"/>
</mask>
<g mask="url(#mask0_212_119)">
<path d="M0 0H31V54H0V0Z" fill="url(#paint0_linear_212_119)"/>
</g>
<defs>
<linearGradient id="paint0_linear_212_119" x1="15" y1="0" x2="15" y2="53" gradientUnits="userSpaceOnUse">
<stop offset="0.00959969" stop-color="#1B1C1A"/>
<stop offset="0.501415" stop-color="#B6B6B6"/>
<stop offset="1" stop-color="#1B1C1A"/>
</linearGradient>
</defs>
</svg>
