<svg width="71" height="56" viewBox="0 0 71 56" fill="none" xmlns="http://www.w3.org/2000/svg">
<mask id="mask0_212_119" style="mask-type:alpha" maskUnits="userSpaceOnUse" x="0" y="0" width="71" height="55">
<path d="M70.3725 26.9543C64.3673 27.4661 21.1602 27.9165 19.042 29.4724C16.5526 31.2944 15.9629 47.7378 15.3078 54.4118C14.6309 47.4921 14.0194 31.0692 11.2898 29.2881C9.1716 27.896 5.74316 27.4456 -7.62939e-06 26.9543C5.98337 26.4425 9.45548 25.9716 11.5518 24.4362C14.0631 22.5937 14.6527 6.69445 15.3078 0C15.9193 6.16217 16.4652 22.0409 18.4961 23.9449C20.5269 25.8488 63.8214 26.4015 70.3725 26.9543Z" fill="white"/>
</mask>
<g mask="url(#mask0_212_119)">
<rect x="0.694695" width="70" height="56" fill="#D9D9D9"/>
<rect x="0.694695" width="70" height="56" fill="url(#paint0_linear_212_119)"/>
</g>
<defs>
<linearGradient id="paint0_linear_212_119" x1="35.6947" y1="0" x2="35.6947" y2="56" gradientUnits="userSpaceOnUse">
<stop offset="0.00959966" stop-color="#1B1C1A"/>
<stop offset="0.501415" stop-color="#B6B6B6"/>
<stop offset="1" stop-color="#1B1C1A"/>
</linearGradient>
</defs>
</svg>
