<svg width="114" height="70" viewBox="0 0 114 70" fill="none" xmlns="http://www.w3.org/2000/svg">
<mask id="mask0_208_96" style="mask-type:luminance" maskUnits="userSpaceOnUse" x="0" y="0" width="114" height="70">
<path d="M20.6992 0C19.8091 9.09556 21.6473 29.5327 18.2354 32.0361C15.3871 34.1222 8.1293 32.8193 0 33.5146C7.80294 34.1821 15.3575 33.1018 18.2354 34.9932C21.9437 37.414 19.7795 60.584 20.6992 69.9854C21.5893 60.9178 20.2743 37.4697 23.6562 34.9932C25.458 33.6697 50.0096 33.6961 70.1211 33.7305V33.7373C70.3057 41.03 76.183 46.9078 83.4756 47.0928L83.8301 47.0977C84.7699 47.0976 85.6876 47.0034 86.5742 46.8232C87.3481 46.9802 88.1457 47.0721 88.9609 47.0928L89.3154 47.0977C90.2556 47.0976 91.1736 47.0035 92.0605 46.8232C92.8342 46.9801 93.6313 47.0721 94.4463 47.0928L94.8008 47.0977C95.7409 47.0976 96.659 47.0034 97.5459 46.8232C98.3195 46.9801 99.1167 47.0721 99.9316 47.0928L100.286 47.0977C107.742 47.0976 113.808 41.1477 113.995 33.7373L114 33.3838C114 25.9283 108.05 19.8624 100.64 19.6748L100.286 19.6699C99.3474 19.6699 98.4307 19.7646 97.5449 19.9443C96.7699 19.7869 95.9708 19.6955 95.1543 19.6748L94.8008 19.6699C93.862 19.6699 92.9453 19.7646 92.0596 19.9443C91.2845 19.7869 90.4855 19.6955 89.6689 19.6748L89.3154 19.6699C88.3767 19.6699 87.4599 19.7647 86.5742 19.9443C85.7991 19.7869 85.0001 19.6955 84.1836 19.6748L83.8301 19.6699C76.2563 19.6699 70.1165 25.8101 70.1162 33.3838L70.1172 33.3955C49.9491 33.5306 25.3941 33.6651 23.6562 32.0361C20.897 29.4493 21.53 8.37237 20.6992 0ZM100.286 20.127C107.607 20.127 113.543 26.0626 113.543 33.3838C113.543 40.7051 107.607 46.6406 100.286 46.6406C99.74 46.6406 99.2017 46.6062 98.6729 46.542C104.253 44.9024 108.356 39.8111 108.51 33.7373L108.515 33.3838C108.514 27.1545 104.361 21.8963 98.6719 20.2256C99.201 20.1613 99.7397 20.127 100.286 20.127ZM94.8008 45.9561C95.3229 46.1842 95.8624 46.3794 96.416 46.542C95.8866 46.6063 95.3476 46.6406 94.8008 46.6406C94.2546 46.6406 93.7164 46.6062 93.1875 46.542C93.7405 46.3795 94.2792 46.184 94.8008 45.9561ZM89.3154 45.9561C89.8376 46.1842 90.377 46.3794 90.9307 46.542C90.4012 46.6063 89.8623 46.6406 89.3154 46.6406C88.7693 46.6406 88.231 46.6062 87.7021 46.542C88.2552 46.3795 88.7938 46.184 89.3154 45.9561ZM75.6064 33.7354V33.7373C75.7602 39.8118 79.8641 44.9032 85.4453 46.542C84.9158 46.6063 84.3769 46.6406 83.8301 46.6406C76.6244 46.6406 70.7618 40.8918 70.5781 33.7305C72.294 33.7334 73.9758 33.7333 75.6064 33.7354ZM97.5439 20.4111C103.549 21.6746 108.057 27.003 108.058 33.3838C108.058 39.7647 103.549 45.0928 97.5439 46.3564C96.7911 46.1981 96.0621 45.9755 95.3623 45.6953C99.8041 43.5093 102.891 38.9904 103.024 33.7373L103.029 33.3838C103.029 27.9801 99.9032 23.3068 95.3613 21.0723C96.0614 20.792 96.7909 20.5695 97.5439 20.4111ZM92.0586 44.3545C92.7396 44.866 93.4693 45.316 94.2402 45.6953C93.5404 45.9755 92.8114 46.198 92.0586 46.3564C91.3058 46.1981 90.5768 45.9755 89.877 45.6953C90.6479 45.3159 91.3777 44.8661 92.0586 44.3545ZM81.0928 33.7402C81.2267 38.9927 84.3132 43.5099 88.7549 45.6953C88.0551 45.9755 87.326 46.198 86.5732 46.3564C80.6781 45.1165 76.2254 39.9602 76.0635 33.7354C77.8081 33.7374 79.4916 33.7414 81.0928 33.7402ZM94.8008 21.3125C99.3847 23.3989 102.572 28.019 102.572 33.3838C102.572 38.7486 99.3847 43.3685 94.8008 45.4551C93.9609 45.0728 93.1677 44.6059 92.4326 44.0645C95.4641 41.6194 97.4335 37.9097 97.5391 33.7373L97.5439 33.3838C97.5438 29.0679 95.5505 25.2168 92.4336 22.7031C93.1685 22.1619 93.9611 21.6947 94.8008 21.3125ZM86.5771 33.7373C86.6828 37.9099 88.6548 41.6166 91.6865 44.0615C90.9505 44.604 90.1566 45.0722 89.3154 45.4551C84.8332 43.4149 81.6873 38.9528 81.5498 33.7402C83.3439 33.7384 85.03 33.7337 86.5771 33.7246V33.7373ZM92.0586 22.9893C95.1219 25.4175 97.0868 29.1714 97.0869 33.3838C97.0869 37.5961 95.1217 41.35 92.0586 43.7783C89.0772 41.4151 87.136 37.797 87.0342 33.7217C91.1206 33.6949 94.1806 33.6368 95.6133 33.5146C94.0845 33.3857 91.0393 33.334 87.0303 33.3232C87.0491 29.1351 89.0097 25.4058 92.0586 22.9893ZM83.8301 20.127C84.3762 20.127 84.9145 20.1614 85.4434 20.2256C79.7616 21.8948 75.6123 27.1427 75.6025 33.3623C73.9711 33.3726 72.2894 33.3811 70.5742 33.3926C70.5742 33.3898 70.5732 33.3866 70.5732 33.3838C70.5735 26.0626 76.5088 20.127 83.8301 20.127ZM86.5732 20.4111C87.326 20.5695 88.0551 20.7921 88.7549 21.0723C84.2283 23.2993 81.1091 27.9486 81.0879 33.3291C79.4857 33.3355 77.8027 33.3486 76.0596 33.3594C76.0713 26.989 80.5753 21.6726 86.5732 20.4111ZM89.3154 21.3125C90.1557 21.695 90.9492 22.1623 91.6846 22.7041C88.5824 25.2057 86.5925 29.0304 86.5732 33.3213C85.0232 33.3184 83.337 33.3215 81.5449 33.3281C81.5671 27.987 84.7473 23.3916 89.3154 21.3125ZM92.0586 20.4111C92.8113 20.5695 93.5405 20.7921 94.2402 21.0723C93.4692 21.4516 92.7386 21.9006 92.0576 22.4121C91.3768 21.9008 90.6467 21.4515 89.876 21.0723C90.576 20.792 91.3055 20.5695 92.0586 20.4111ZM94.8008 20.127C95.3469 20.127 95.8853 20.1614 96.4141 20.2256C95.8614 20.388 95.3231 20.5838 94.8018 20.8115C94.2797 20.5834 93.7401 20.3882 93.1865 20.2256C93.7157 20.1613 94.2543 20.127 94.8008 20.127ZM89.3154 20.127C89.8616 20.127 90.3999 20.1614 90.9287 20.2256C90.376 20.388 89.8377 20.5838 89.3164 20.8115C88.7943 20.5834 88.2548 20.3882 87.7012 20.2256C88.2303 20.1614 88.769 20.127 89.3154 20.127Z" fill="white"/>
</mask>
<g mask="url(#mask0_208_96)">
<rect width="117.678" height="69.8712" transform="matrix(-1 0 0 1 116.452 0.057373)" fill="#D9D9D9"/>
<rect width="117.678" height="69.8712" transform="matrix(-1 0 0 1 116.452 0.057373)" fill="url(#paint0_linear_208_96)"/>
</g>
<defs>
<linearGradient id="paint0_linear_208_96" x1="58.8389" y1="0" x2="58.8389" y2="69.8712" gradientUnits="userSpaceOnUse">
<stop offset="0.00959966" stop-color="#1B1C1A"/>
<stop offset="0.501415" stop-color="#B6B6B6"/>
<stop offset="1" stop-color="#1B1C1A"/>
</linearGradient>
</defs>
</svg>
