<svg width="114" height="70" viewBox="0 0 114 70" fill="none" xmlns="http://www.w3.org/2000/svg">
<mask id="mask0_208_96" style="mask-type:luminance" maskUnits="userSpaceOnUse" x="0" y="0" width="114" height="70">
<path d="M93.3008 0C94.1909 9.09556 92.3527 29.5327 95.7646 32.0361C98.6129 34.1222 105.871 32.8193 114 33.5146C106.197 34.1821 98.6425 33.1018 95.7646 34.9932C92.0563 37.414 94.2205 60.584 93.3008 69.9854C92.4107 60.9178 93.7257 37.4697 90.3438 34.9932C88.542 33.6697 63.9904 33.6961 43.8789 33.7305V33.7373C43.6943 41.03 37.817 46.9078 30.5244 47.0928L30.1699 47.0977C29.2301 47.0976 28.3124 47.0034 27.4258 46.8232C26.6519 46.9802 25.8543 47.0721 25.0391 47.0928L24.6846 47.0977C23.7444 47.0976 22.8264 47.0035 21.9395 46.8232C21.1658 46.9801 20.3687 47.0721 19.5537 47.0928L19.1992 47.0977C18.2591 47.0976 17.341 47.0034 16.4541 46.8232C15.6805 46.9801 14.8833 47.0721 14.0684 47.0928L13.7139 47.0977C6.25825 47.0976 0.192451 41.1477 0.00488281 33.7373L0 33.3838C0.000235757 25.9283 5.95003 19.8624 13.3604 19.6748L13.7139 19.6699C14.6526 19.6699 15.5693 19.7646 16.4551 19.9443C17.2301 19.7869 18.0292 19.6955 18.8457 19.6748L19.1992 19.6699C20.138 19.6699 21.0547 19.7646 21.9404 19.9443C22.7155 19.7869 23.5145 19.6955 24.3311 19.6748L24.6846 19.6699C25.6233 19.6699 26.5401 19.7647 27.4258 19.9443C28.2009 19.7869 28.9999 19.6955 29.8164 19.6748L30.1699 19.6699C37.7437 19.6699 43.8835 25.8101 43.8838 33.3838L43.8828 33.3955C64.0509 33.5306 88.6059 33.6651 90.3438 32.0361C93.103 29.4493 92.47 8.37237 93.3008 0ZM13.7139 20.127C6.39263 20.127 0.457271 26.0626 0.457031 33.3838C0.457089 40.7051 6.39251 46.6406 13.7139 46.6406C14.26 46.6406 14.7983 46.6062 15.3271 46.542C9.74699 44.9024 5.64397 39.8111 5.49023 33.7373L5.48535 33.3838C5.48555 27.1545 9.63939 21.8963 15.3281 20.2256C14.799 20.1613 14.2603 20.127 13.7139 20.127ZM19.1992 45.9561C18.6771 46.1842 18.1376 46.3794 17.584 46.542C18.1134 46.6063 18.6524 46.6406 19.1992 46.6406C19.7454 46.6406 20.2836 46.6062 20.8125 46.542C20.2595 46.3795 19.7208 46.184 19.1992 45.9561ZM24.6846 45.9561C24.1624 46.1842 23.623 46.3794 23.0693 46.542C23.5988 46.6063 24.1377 46.6406 24.6846 46.6406C25.2307 46.6406 25.769 46.6062 26.2979 46.542C25.7448 46.3795 25.2062 46.184 24.6846 45.9561ZM38.3936 33.7354V33.7373C38.2398 39.8118 34.1359 44.9032 28.5547 46.542C29.0842 46.6063 29.6231 46.6406 30.1699 46.6406C37.3756 46.6406 43.2382 40.8918 43.4219 33.7305C41.706 33.7334 40.0242 33.7333 38.3936 33.7354ZM16.4561 20.4111C10.4509 21.6746 5.94259 27.003 5.94238 33.3838C5.94243 39.7647 10.4509 45.0928 16.4561 46.3564C17.2089 46.1981 17.9379 45.9755 18.6377 45.6953C14.1959 43.5093 11.1085 38.9904 10.9756 33.7373L10.9707 33.3838C10.9709 27.9801 14.0968 23.3068 18.6387 21.0723C17.9386 20.792 17.2091 20.5695 16.4561 20.4111ZM21.9414 44.3545C21.2604 44.866 20.5307 45.316 19.7598 45.6953C20.4596 45.9755 21.1886 46.198 21.9414 46.3564C22.6942 46.1981 23.4232 45.9755 24.123 45.6953C23.3521 45.3159 22.6223 44.8661 21.9414 44.3545ZM32.9072 33.7402C32.7733 38.9927 29.6868 43.5099 25.2451 45.6953C25.9449 45.9755 26.674 46.198 27.4268 46.3564C33.3219 45.1165 37.7746 39.9602 37.9365 33.7354C36.1919 33.7374 34.5084 33.7414 32.9072 33.7402ZM19.1992 21.3125C14.6153 23.3989 11.4279 28.019 11.4277 33.3838C11.4278 38.7486 14.6153 43.3685 19.1992 45.4551C20.0391 45.0728 20.8323 44.6059 21.5674 44.0645C18.5359 41.6194 16.5665 37.9097 16.4609 33.7373L16.4561 33.3838C16.4562 29.0679 18.4495 25.2168 21.5664 22.7031C20.8315 22.1619 20.0389 21.6947 19.1992 21.3125ZM27.4229 33.7373C27.3172 37.9099 25.3452 41.6166 22.3135 44.0615C23.0495 44.604 23.8434 45.0722 24.6846 45.4551C29.1668 43.4149 32.3127 38.9528 32.4502 33.7402C30.6561 33.7384 28.97 33.7337 27.4229 33.7246V33.7373ZM21.9414 22.9893C18.8781 25.4175 16.9132 29.1714 16.9131 33.3838C16.9131 37.5961 18.8783 41.35 21.9414 43.7783C24.9228 41.4151 26.864 37.797 26.9658 33.7217C22.8794 33.6949 19.8194 33.6368 18.3867 33.5146C19.9155 33.3857 22.9607 33.334 26.9697 33.3232C26.9509 29.1351 24.9903 25.4058 21.9414 22.9893ZM30.1699 20.127C29.6238 20.127 29.0855 20.1614 28.5566 20.2256C34.2384 21.8948 38.3877 27.1427 38.3975 33.3623C40.0289 33.3726 41.7106 33.3811 43.4258 33.3926C43.4258 33.3898 43.4268 33.3866 43.4268 33.3838C43.4265 26.0626 37.4912 20.127 30.1699 20.127ZM27.4268 20.4111C26.674 20.5695 25.9449 20.7921 25.2451 21.0723C29.7717 23.2993 32.8909 27.9486 32.9121 33.3291C34.5143 33.3355 36.1973 33.3486 37.9404 33.3594C37.9287 26.989 33.4247 21.6726 27.4268 20.4111ZM24.6846 21.3125C23.8443 21.695 23.0508 22.1623 22.3154 22.7041C25.4176 25.2057 27.4075 29.0304 27.4268 33.3213C28.9768 33.3184 30.663 33.3215 32.4551 33.3281C32.4329 27.987 29.2527 23.3916 24.6846 21.3125ZM21.9414 20.4111C21.1887 20.5695 20.4595 20.7921 19.7598 21.0723C20.5308 21.4516 21.2614 21.9006 21.9424 22.4121C22.6232 21.9008 23.3533 21.4515 24.124 21.0723C23.424 20.792 22.6945 20.5695 21.9414 20.4111ZM19.1992 20.127C18.6531 20.127 18.1147 20.1614 17.5859 20.2256C18.1386 20.388 18.6769 20.5838 19.1982 20.8115C19.7203 20.5834 20.2599 20.3882 20.8135 20.2256C20.2843 20.1613 19.7457 20.127 19.1992 20.127ZM24.6846 20.127C24.1384 20.127 23.6001 20.1614 23.0713 20.2256C23.624 20.388 24.1623 20.5838 24.6836 20.8115C25.2057 20.5834 25.7452 20.3882 26.2988 20.2256C25.7697 20.1614 25.231 20.127 24.6846 20.127Z" fill="white"/>
</mask>
<g mask="url(#mask0_208_96)">
<rect x="-2.45166" y="0.057373" width="117.678" height="69.8712" fill="#D9D9D9"/>
<rect x="-2.45166" y="0.057373" width="117.678" height="69.8712" fill="url(#paint0_linear_208_96)"/>
</g>
<defs>
<linearGradient id="paint0_linear_208_96" x1="56.3873" y1="0.057373" x2="56.3873" y2="69.9286" gradientUnits="userSpaceOnUse">
<stop offset="0.00959966" stop-color="#1B1C1A"/>
<stop offset="0.501415" stop-color="#B6B6B6"/>
<stop offset="1" stop-color="#1B1C1A"/>
</linearGradient>
</defs>
</svg>
