<svg width="97" height="75" viewBox="0 0 97 75" fill="none" xmlns="http://www.w3.org/2000/svg">
<mask id="mask0_199_91" style="mask-type:alpha" maskUnits="userSpaceOnUse" x="0" y="0" width="97" height="75">
<path d="M0 37.1532C8.27746 37.8587 67.8332 38.4795 70.7529 40.6241C74.1843 43.1356 74.997 65.8007 75.9 75C76.8331 65.4621 77.6759 42.8252 81.4384 40.3701C84.3581 38.4513 89.0837 37.8305 97 37.1532C88.7526 36.4477 83.9668 35.7987 81.0772 33.6823C77.6157 31.1427 76.803 9.22749 75.9 0C75.0572 8.4938 74.3047 30.3807 71.5054 33.0051C68.7061 35.6294 9.02995 36.3913 0 37.1532Z" fill="white"/>
</mask>
<g mask="url(#mask0_199_91)">
<rect width="106" height="77" fill="url(#paint0_linear_199_91)"/>
</g>
<defs>
<linearGradient id="paint0_linear_199_91" x1="53" y1="0" x2="53" y2="77" gradientUnits="userSpaceOnUse">
<stop offset="0.00959966" stop-color="#1B1C1A"/>
<stop offset="0.501415" stop-color="#B6B6B6"/>
<stop offset="1" stop-color="#1B1C1A"/>
</linearGradient>
</defs>
</svg>
