<svg width="40" height="40" viewBox="0 0 40 40" fill="none" xmlns="http://www.w3.org/2000/svg">
<path d="M9.28736 40C8.49042 40 7.78544 39.7442 7.17241 39.2326C6.62069 38.6571 6.34483 37.9217 6.34483 37.0264C6.34483 36.0671 6.77395 35.012 7.63218 33.8609C8.18391 33.0935 9.34866 31.8145 11.1264 30.024C12.5364 28.4892 13.6398 27.2742 14.4368 26.3789L18.2989 22.2542L12.9655 21.3909C12.1073 21.199 10.9119 20.9752 9.37931 20.7194C5.70115 20.016 3.341 19.4404 2.29885 18.9928C0.766284 18.3533 0 17.3621 0 16.0192C0 15.1239 0.245211 14.3565 0.735632 13.717C1.28736 13.0775 1.99234 12.7578 2.85057 12.7578C3.83142 12.7578 6.16092 13.717 9.83908 15.6355C11.6169 16.5308 13.0268 17.2342 14.069 17.7458L18.8506 20.2398L18.2069 14.5803C17.3487 8.88889 16.9195 5.14788 16.9195 3.35732C16.9195 1.11911 17.931 0 19.954 0C22.0383 0 23.0805 1.11911 23.0805 3.35732C23.0805 4.06075 22.8966 5.69145 22.5287 8.2494C22.1609 10.9353 21.9157 13.0456 21.7931 14.5803L20.9655 20.1439L25.8391 17.7458C26.6973 17.2982 27.9234 16.6587 29.5172 15.8273C33.5632 13.781 36.0766 12.7578 37.0575 12.7578C37.9157 12.7578 38.6207 13.0775 39.1724 13.717C39.7241 14.3565 40 15.1239 40 16.0192C40 17.4261 39.2031 18.4492 37.6092 19.0887C36.5671 19.4724 34.2069 19.984 30.5287 20.6235C28.9962 20.8793 27.8008 21.0711 26.9425 21.199L21.7011 22.1583L25.4713 26.3789C26.2069 27.2742 27.2797 28.4253 28.6897 29.8321C30.4674 31.7506 31.6322 33.0935 32.1839 33.8609C33.1035 35.0759 33.5632 36.1311 33.5632 37.0264C33.5632 37.8577 33.2567 38.5612 32.6437 39.1367C32.092 39.7122 31.4483 40 30.7126 40C29.6092 40 28.5364 39.2966 27.4943 37.8897C26.8812 36.9944 25.8084 35.0759 24.2759 32.1343C23.4789 30.5995 22.8659 29.4165 22.4368 28.5851L19.954 23.5012L17.4713 28.5851C17.0421 29.3525 16.4598 30.4716 15.7241 31.9424C14.2529 34.8841 13.1801 36.8345 12.5057 37.7938C11.4023 39.2646 10.3295 40 9.28736 40Z" fill="#B6B6B6"/>
</svg>
